<svg width="42" height="42" viewBox="0 0 42 42" fill="none" xmlns="http://www.w3.org/2000/svg">
<g clip-path="url(#clip0_24_58)">
<path d="M39.6812 0H2.31875C1.03775 0 0 1.03775 0 2.31875V39.683C0 40.9622 1.03775 42 2.31875 42H22.435V25.7355H16.961V19.397H22.435V14.7227C22.435 9.29775 25.7477 6.34375 30.5882 6.34375C32.907 6.34375 34.8985 6.517 35.4795 6.594V12.264L32.123 12.2657C29.491 12.2657 28.9818 13.517 28.9818 15.351V19.3988H35.259L34.4417 25.7372H28.9818V42H39.6847C40.9622 42 42 40.9622 42 39.6812V2.31875C42 1.03775 40.9622 0 39.6812 0Z" fill="#5E2606"/>
</g>
<defs>
<clipPath id="clip0_24_58">
<rect width="42" height="42" fill="white"/>
</clipPath>
</defs>
</svg>
