<svg width="44" height="44" viewBox="0 0 44 44" fill="none" xmlns="http://www.w3.org/2000/svg">
<g clip-path="url(#clip0_24_62)">
<path d="M34.8333 0H9.16667C4.10483 0 0 4.10483 0 9.16667V34.8333C0 39.8952 4.10483 44 9.16667 44H34.8333C39.897 44 44 39.8952 44 34.8333V9.16667C44 4.10483 39.897 0 34.8333 0ZM34.5785 16.9345C34.9617 25.399 28.6495 34.837 17.4735 34.837C14.0745 34.837 10.912 33.8415 8.24817 32.1328C11.4418 32.5087 14.6282 31.6232 17.1582 29.6413C14.5237 29.5918 12.3017 27.852 11.5372 25.4613C12.4813 25.641 13.409 25.5878 14.2542 25.3587C11.3593 24.7775 9.36283 22.1705 9.427 19.382C10.2373 19.833 11.1668 20.1043 12.1513 20.1355C9.47283 18.3443 8.71383 14.806 10.2887 12.1C13.2568 15.741 17.6917 18.1372 22.693 18.3883C21.8148 14.6245 24.673 11 28.5578 11C30.2867 11 31.8523 11.7297 32.9487 12.9012C34.32 12.6317 35.6088 12.1312 36.773 11.4418C36.322 12.848 35.3687 14.0268 34.1275 14.7712C35.3448 14.6245 36.5053 14.3018 37.5833 13.8233C36.7785 15.026 35.7573 16.0857 34.5785 16.9345Z" fill="#F9F4E0"/>
</g>
<defs>
<clipPath id="clip0_24_62">
<rect width="44" height="44" fill="white"/>
</clipPath>
</defs>
</svg>
